<?xml version="1.0" encoding="iso-8859-1"?>
<!-- Generator: Adobe Illustrator 18.0.0, SVG Export Plug-In . SVG Version: 6.00 Build 0)  -->
<!DOCTYPE svg PUBLIC "-//W3C//DTD SVG 1.1//EN" "http://www.w3.org/Graphics/SVG/1.1/DTD/svg11.dtd">
<svg version="1.1" id="Capa_1" xmlns="http://www.w3.org/2000/svg" xmlns:xlink="http://www.w3.org/1999/xlink" x="0px" y="0px"
	 viewBox="0 0 60 60" style="enable-background:new 0 0 60 60;" xml:space="preserve">
<g>
	<g>
		<path style="fill:#8697CB;" d="M53.566,44.783l-9.552-4.776C42.78,39.39,42,38.128,42,36.748V33
			c0.268-0.305,0.576-0.698,0.904-1.162c1.302-1.838,2.286-3.861,2.969-5.984C47.098,25.477,48,24.345,48,23v-4
			c0-0.88-0.391-1.667-1-2.217V11c0,0,1.187-9-11-9c-12.188,0-11,9-11,9v5.783c-0.609,0.55-1,1.337-1,2.217v4
			c0,1.054,0.554,1.981,1.383,2.517C26.382,29.869,29,33,29,33v3.655c0,1.333-0.728,2.56-1.899,3.198L18.18,44.72
			C15.603,46.125,14,48.826,14,51.761V55h44v-3.043C58,48.919,56.283,46.142,53.566,44.783z"/>
		<path style="fill:#556080;" d="M18.18,44.72l5.946-3.243c-0.034-0.033-0.005-0.043,0.065-0.036l2.91-1.587
			C28.272,39.215,29,37.989,29,36.655V33c0,0-1.062-1.275-2.092-3.323h0c0-0.001-0.001-0.002-0.001-0.003
			c-0.135-0.268-0.268-0.551-0.399-0.844c-0.018-0.041-0.036-0.08-0.054-0.121c-0.133-0.303-0.263-0.616-0.386-0.944
			c-0.008-0.021-0.015-0.044-0.023-0.065c-0.108-0.29-0.209-0.589-0.306-0.896c-0.026-0.084-0.052-0.167-0.077-0.251
			c-0.101-0.338-0.196-0.682-0.278-1.038C24.554,24.981,24,24.054,24,23v-4c0-0.88,0.391-1.667,1-2.217v-5.648
			C23.587,10.039,21.397,9,18,9C8.437,9,8,17,8,17v4.995c-0.526,0.475-1,1.154-1,1.914v3.455c0,0.911,0.479,1.711,1.194,2.174
			C9.057,33.296,11.955,36,11.955,36v3.157c0,1.151-0.629,2.211-1.64,2.762L3.61,46.122C1.385,47.336,0,49.668,0,52.203V55h14
			v-3.239C14,48.826,15.603,46.125,18.18,44.72z"/>
	</g>
	<g>
		<circle style="fill:#26B999;" cx="48" cy="46" r="12"/>
		<path style="fill:#FFFFFF;" d="M54.571,40.179c-0.455-0.316-1.077-0.204-1.392,0.25l-5.596,8.04l-3.949-3.242
			c-0.426-0.351-1.057-0.288-1.407,0.139c-0.351,0.427-0.289,1.057,0.139,1.407l4.786,3.929c0.18,0.147,0.404,0.227,0.634,0.227
			c0.045,0,0.091-0.003,0.137-0.009c0.276-0.039,0.524-0.19,0.684-0.419l6.214-8.929C55.136,41.118,55.024,40.495,54.571,40.179z"/>
	</g>
</g>
<g>
</g>
<g>
</g>
<g>
</g>
<g>
</g>
<g>
</g>
<g>
</g>
<g>
</g>
<g>
</g>
<g>
</g>
<g>
</g>
<g>
</g>
<g>
</g>
<g>
</g>
<g>
</g>
<g>
</g>
</svg>
