<?xml version="1.0" encoding="iso-8859-1"?>
<!-- Generator: Adobe Illustrator 19.0.0, SVG Export Plug-In . SVG Version: 6.00 Build 0)  -->
<svg version="1.1" id="Layer_1" xmlns="http://www.w3.org/2000/svg" xmlns:xlink="http://www.w3.org/1999/xlink" x="0px" y="0px"
	 viewBox="0 0 512 512" style="enable-background:new 0 0 512 512;" xml:space="preserve">
<g>
	<g>
		<g>
			<path d="M388.722,274.963h-18.945v-37.926h18.945c20.926,0,37.944-17.009,37.944-37.926c0-20.917-17.019-37.926-37.944-37.926
				h-18.945v-37.907c0-20.926-17.009-37.944-37.926-37.944s-37.926,17.019-37.926,37.944v37.907h-75.852v-37.907
				c0-20.926-17.009-37.944-37.926-37.944s-37.926,17.019-37.926,37.944v37.907h-18.944c-20.926,0-37.944,17.009-37.944,37.926
				c0,20.917,17.019,37.926,37.944,37.926h18.944v37.926h-18.944c-20.926,0-37.944,17.009-37.944,37.926
				s17.019,37.926,37.944,37.926h18.944v37.907c0,20.926,17.009,37.944,37.926,37.944s37.926-17.019,37.926-37.944v-37.907h75.852
				v37.907c0,20.926,17.009,37.944,37.926,37.944s37.926-17.019,37.926-37.944v-37.907h18.945c20.926,0,37.944-17.009,37.944-37.926
				S409.648,274.963,388.722,274.963z M388.722,331.852h-28.426c-5.241,0-9.482,4.241-9.482,9.481v47.389
				c0,10.463-8.509,18.981-18.963,18.981s-18.963-8.518-18.963-18.981v-47.389c0-5.241-4.241-9.481-9.482-9.481h-94.815
				c-5.241,0-9.482,4.241-9.482,9.481v47.389c0,10.463-8.509,18.981-18.963,18.981c-10.454,0-18.963-8.519-18.963-18.981v-47.389
				c0-5.241-4.241-9.481-9.481-9.481h-28.426c-10.463,0-18.981-8.509-18.981-18.963c0-10.454,8.519-18.963,18.981-18.963h28.426
				c5.241,0,9.481-4.241,9.481-9.481v-56.889c0-5.241-4.241-9.481-9.481-9.481h-28.426c-10.463,0-18.981-8.509-18.981-18.963
				c0-10.454,8.519-18.963,18.981-18.963h28.426c5.241,0,9.481-4.241,9.481-9.481v-47.389c0-10.463,8.509-18.981,18.963-18.981
				c10.454,0,18.963,8.519,18.963,18.981v47.389c0,5.241,4.241,9.481,9.482,9.481h94.815c5.241,0,9.482-4.241,9.482-9.481v-47.389
				c0-10.463,8.509-18.981,18.963-18.981s18.963,8.519,18.963,18.981v47.389c0,5.241,4.241,9.481,9.482,9.481h28.426
				c10.463,0,18.981,8.509,18.981,18.963c0,10.454-8.519,18.963-18.981,18.963h-28.426c-5.241,0-9.482,4.241-9.482,9.481v56.889
				c0,5.241,4.241,9.481,9.482,9.481h28.426c10.463,0,18.981,8.509,18.981,18.963C407.704,323.343,399.185,331.852,388.722,331.852z
				"/>
			<path d="M303.407,218.074h-94.815c-5.241,0-9.482,4.241-9.482,9.481v56.889c0,5.241,4.241,9.481,9.482,9.481h94.815
				c5.241,0,9.482-4.241,9.482-9.481v-56.889C312.889,222.315,308.648,218.074,303.407,218.074z M293.926,274.963h-75.852v-37.926
				h75.852V274.963z"/>
			<path d="M256,0C114.843,0,0,114.843,0,256s114.843,256,256,256s256-114.843,256-256S397.157,0,256,0z M256,493.037
				C125.296,493.037,18.963,386.704,18.963,256S125.296,18.963,256,18.963S493.037,125.296,493.037,256S386.704,493.037,256,493.037
				z"/>
		</g>
	</g>
</g>
<g>
</g>
<g>
</g>
<g>
</g>
<g>
</g>
<g>
</g>
<g>
</g>
<g>
</g>
<g>
</g>
<g>
</g>
<g>
</g>
<g>
</g>
<g>
</g>
<g>
</g>
<g>
</g>
<g>
</g>
</svg>
