<?xml version="1.0" encoding="iso-8859-1"?>
<!-- Generator: Adobe Illustrator 19.0.0, SVG Export Plug-In . SVG Version: 6.00 Build 0)  -->
<svg version="1.1" id="Layer_1" xmlns="http://www.w3.org/2000/svg" xmlns:xlink="http://www.w3.org/1999/xlink" x="0px" y="0px"
	 viewBox="0 0 512 512" style="enable-background:new 0 0 512 512;" xml:space="preserve">
<g>
	<g>
		<g>
			<path d="M166.656,173c-4.608-3.648-11.307-2.923-14.997,1.664l-74.923,93.653l-13.867-27.755
				c-2.645-5.291-9.045-7.403-14.315-4.779c-5.269,2.645-7.403,9.045-4.779,14.315l21.333,42.667c1.643,3.243,4.8,5.44,8.427,5.824
				c0.384,0.043,0.747,0.064,1.131,0.064c3.221,0,6.293-1.451,8.32-3.989l85.333-106.667
				C171.989,183.39,171.264,176.691,166.656,173z"/>
			<path d="M138.667,245.32c-5.888,0-10.667,4.779-10.667,10.667v64H21.333V213.32H96c5.888,0,10.667-4.779,10.667-10.667
				S101.888,191.987,96,191.987H10.667C4.779,191.987,0,196.766,0,202.654v128c0,5.888,4.779,10.667,10.667,10.667h128
				c5.888,0,10.667-4.779,10.667-10.667v-74.667C149.333,250.099,144.555,245.32,138.667,245.32z"/>
			<path d="M501.333,319.987H448V277.32h32c5.888,0,10.667-4.779,10.667-10.667s-4.779-10.667-10.667-10.667h-32V213.32h53.333
				c5.888,0,10.667-4.779,10.667-10.667s-4.779-10.667-10.667-10.667h-64c-5.888,0-10.667,4.779-10.667,10.667v128
				c0,5.888,4.779,10.667,10.667,10.667h64c5.888,0,10.667-4.779,10.667-10.667S507.221,319.987,501.333,319.987z"/>
			<path d="M224,191.987c-29.419,0-53.333,23.936-53.333,53.333v42.667c0,29.397,23.915,53.333,53.333,53.333
				s53.333-23.936,53.333-53.333V245.32C277.333,215.923,253.419,191.987,224,191.987z M256,287.987c0,17.643-14.357,32-32,32
				s-32-14.357-32-32V245.32c0-17.643,14.357-32,32-32s32,14.357,32,32V287.987z"/>
			<path d="M394.667,191.987h-85.333c-5.888,0-10.667,4.779-10.667,10.667s4.779,10.667,10.667,10.667h32v117.333
				c0,5.888,4.779,10.667,10.667,10.667c5.888,0,10.667-4.779,10.667-10.667V213.32h32c5.888,0,10.667-4.779,10.667-10.667
				S400.555,191.987,394.667,191.987z"/>
		</g>
	</g>
</g>
<g>
</g>
<g>
</g>
<g>
</g>
<g>
</g>
<g>
</g>
<g>
</g>
<g>
</g>
<g>
</g>
<g>
</g>
<g>
</g>
<g>
</g>
<g>
</g>
<g>
</g>
<g>
</g>
<g>
</g>
</svg>
